HIERARCHY
ROOT Hips
{
	OFFSET 0.000000 0.000000 0.000000 
	CHANNELS 6 Xposition Yposition Zposition Yrotation Zrotation Xrotation 
	JOINT Lumbar
	{
		OFFSET 0.000000 0.000000 0.000000 
		CHANNELS 3 Zrotation Xrotation Yrotation
		JOINT Neck
		{
			OFFSET 0.000000 0.445665 0.000000 
			CHANNELS 3 Zrotation Xrotation Yrotation
			End Site
			{
				OFFSET 0.000000 0.227535 0.000000 
			}
		}
		JOINT RightShoulder
		{
			OFFSET 0.019635 0.377685 0.194865 
			CHANNELS 3 Zrotation Xrotation Yrotation
			JOINT RightElbow
			{
				OFFSET 0.000000 -0.243375 0.000000 
				CHANNELS 2 Zrotation Yrotation
				JOINT RightWrist
				{
					OFFSET 0.000000 -0.264825 0.000000 
					CHANNELS 2 Zrotation Xrotation
					End Site
					{
						OFFSET 0.006600 -0.176220 0.000990 
					}
				}
			}
		}
		JOINT LeftShoulder
		{
			OFFSET 0.019635 0.377685 -0.194865 
			CHANNELS 3 Zrotation Xrotation Yrotation
			JOINT LeftElbow
			{
				OFFSET 0.000000 -0.243375 0.000000 
				CHANNELS 2 Zrotation Yrotation
				JOINT LeftWrist
				{
					OFFSET 0.000000 -0.264825 0.000000 
					CHANNELS 2 Zrotation Xrotation
					End Site
					{
						OFFSET 0.006600 -0.176220 -0.000990 
					}
				}
			}
		}
	}
	JOINT RightHip
	{
		OFFSET 0.052140 -0.069960 0.075570 
		CHANNELS 3 Zrotation Xrotation Yrotation
		JOINT RightKnee
		{
			OFFSET 0.000000 -0.402270 0.000000 
			CHANNELS 1 Zrotation
			JOINT RightAnkle
			{
				OFFSET 0.000000 -0.404085 0.000000 
				CHANNELS 3 Zrotation Xrotation Yrotation
				End Site
				{
					OFFSET 0.204105 -0.089430 0.008415 
				}
			}
		}
	}
	JOINT LeftHip
	{
		OFFSET 0.052140 -0.069960 -0.075570 
		CHANNELS 3 Zrotation Xrotation Yrotation
		JOINT LeftKnee
		{
			OFFSET 0.000000 -0.402270 0.000000 
			CHANNELS 1 Zrotation
			JOINT LeftAnkle
			{
				OFFSET 0.000000 -0.404085 0.000000 
				CHANNELS 3 Zrotation Xrotation Yrotation
				End Site
				{
					OFFSET 0.204105 -0.089430 -0.008415 
				}
			}
		}
	}
}
MOTION
Frames: 34
Frame Time: 0.02
-0.78018 0.96062 1.21344 1415.84565 0 -9.2158 3.86999 9.90567 -0.8569 -7.33371 -0.09846 -1.51013 2.10028 0.59938 -9.98922 129.75375 5.05931 71.19922 -21.60264 -6.26379 14.15687 -14.18331 98.17146 -87.20253 51.88922 2.50613 4.42593 11.6544 10.1333 -17.89483 4.67934 -3.7106 -6.26651 18.81047 -1.38415 -8.01099 -71.36206 3.50938 4.60539 15.02727
-0.77146 0.96111 1.22086 1416.69618 0 -8.58106 3.4978 9.50525 -0.47741 -7.07837 -1.05267 -1.24679 1.30386 1.30252 -9.89363 129.43904 5.02235 71.79412 -21.63473 -6.74189 14.90374 -13.71525 98.38019 -87.4761 52.08121 2.48934 3.57055 11.32456 10.10834 -17.73805 5.20962 -4.20711 -7.19536 20.21534 -2.02574 -6.94568 -68.3608 4.14952 4.69629 15.50628
-0.76234 0.96116 1.22806 1417.52296 0 -7.95467 3.16632 9.09937 -0.28379 -6.94181 -1.99707 -0.87228 0.75346 1.94299 -9.95922 129.12685 5.04359 72.44801 -21.61492 -7.18362 15.61569 -13.1568 98.52038 -87.74543 52.29356 2.47601 2.76902 10.96349 9.80484 -17.67627 5.80128 -4.65788 -7.83372 21.30541 -2.61925 -6.00125 -64.34263 4.8115 4.75397 15.74477
-0.75335 0.96136 1.23538 1418.34292 0 -7.33417 2.81947 8.70093 0.01073 -6.75411 -2.93657 -0.55736 0.09551 2.6082 -9.94507 128.81798 5.03669 73.06588 -21.62023 -7.63901 16.33638 -12.64244 98.69537 -88.00756 52.49472 2.46138 1.94443 10.62662 9.6325 -17.57533 6.36682 -5.13156 -8.59398 22.50575 -3.22693 -5.03316 -60.73454 5.43469 4.82699 16.06748
-0.7446 0.96178 1.2426 1419.23502 0 -6.67055 2.45678 8.28038 0.2442 -6.55328 -3.91682 -0.20534 -0.58788 3.28687 -9.94789 128.48977 5.035 73.72198 -21.62083 -8.11105 17.08845 -12.11253 98.85191 -88.30953 52.70787 2.44542 1.11755 10.24693 9.44293 -17.4592 6.92325 -5.59974 -9.40228 23.84144 -3.87159 -3.93962 -57.30536 6.19259 4.89911 16.4923
-0.73525 0.96164 1.24997 1419.97132 0 -6.09946 2.13852 7.90442 0.55652 -6.40879 -4.80853 0.09655 -1.15695 3.92243 -9.95706 128.20252 5.03711 74.31181 -21.61817 -8.53702 17.76535 -11.59524 99.03125 -88.52722 52.89897 2.43313 0.30595 9.94884 9.22363 -17.3961 7.51354 -6.0676 -10.03928 24.82061 -4.42512 -3.13438 -53.28242 6.67236 4.96395 16.64679
-0.72447 0.96016 1.25779 1420.29272 0 -5.78338 1.92418 7.66058 1.14391 -6.3869 -5.46862 0.2286 -1.47031 4.46752 -9.95225 128.02922 5.03476 74.71488 -21.61983 -8.85664 18.25582 -11.12809 99.29637 -88.51091 53.02977 2.43013 -0.46597 9.88846 8.97385 -17.46264 8.18575 -6.5402 -10.27621 24.90579 -4.75087 -3.08351 -47.81805 6.35185 5.0321 16.13927
-0.71307 0.95814 1.26577 1420.45698 0 -5.56009 1.75532 7.46063 1.81373 -6.41866 -6.03793 0.30696 -1.67575 4.96936 -9.94881 127.89697 5.03481 75.04719 -21.61947 -9.12809 18.66959 -10.67877 99.58597 -88.4103 53.13632 2.43073 -1.22684 9.91041 8.7063 -17.57809 8.88919 -7.01424 -10.34956 24.64195 -4.98421 -3.31816 -41.81121 5.75385 5.09166 15.36506
-0.70188 0.95634 1.27368 1420.68723 0 -5.29374 1.57129 7.23591 2.43712 -6.42825 -6.64197 0.41313 -1.93014 5.48294 -9.94056 127.7449 5.03424 75.4055 -21.61961 -9.41373 19.11008 -10.22552 99.86118 -88.34943 53.24964 2.42973 -2.00003 9.89187 8.45722 -17.6665 9.57685 -7.49109 -10.49596 24.5287 -5.25095 -3.43107 -36.08415 5.29792 5.145 14.69582
-0.69101 0.95465 1.28155 1420.93888 0 -5.03175 1.36428 7.03149 3.09239 -6.43176 -7.27336 0.50998 -2.17793 6.02799 -9.95358 127.59735 5.0329 75.79299 -21.62044 -9.73216 19.58327 -9.74965 100.1486 -88.28183 53.38101 2.42871 -2.74011 9.88574 8.15473 -17.77776 10.27488 -7.95303 -10.63825 24.43498 -5.55082 -3.52122 -30.15825 4.77422 5.23886 14.08264
-0.67931 0.9526 1.28955 1421.1097 0 -4.78218 1.21686 6.79509 3.70277 -6.46021 -7.82616 0.61054 -2.41521 6.49763 -9.92287 127.4507 5.03398 76.1007 -21.61913 -9.96947 19.97112 -9.32858 100.41623 -88.209 53.46961 2.42852 -3.5477 9.87302 7.96272 -17.85281 10.95597 -8.4454 -10.75342 24.22595 -5.76231 -3.71655 -24.55907 4.32722 5.24803 13.2975
-0.6656 0.94969 1.29791 1421.08898 0 -4.54745 1.21088 6.46093 4.17392 -6.53533 -8.18553 0.74665 -2.66501 6.77319 -9.74995 127.29142 5.0318 76.21788 -21.62101 -10.00954 20.13732 -9.03594 100.63281 -88.13734 53.4383 2.4296 -4.53951 9.82759 8.08364 -17.80952 11.59822 -9.03352 -10.83972 23.74842 -5.73614 -4.2061 -19.76032 4.14188 5.01425 12.06216
-0.65103 0.94645 1.3064 1420.99337 0 -4.32096 1.2657 6.09253 4.59732 -6.63525 -8.46864 0.88544 -2.90552 6.97379 -9.53555 127.13254 5.03301 76.25501 -21.61987 -9.96663 20.22114 -8.80187 100.82717 -88.06512 53.36599 2.43121 -5.59989 9.77144 8.31757 -17.73072 12.2184 -9.6493 -10.90464 23.17402 -5.62791 -4.77875 -15.35727 4.0451 4.69779 10.67245
-0.63676 0.94337 1.31482 1420.93708 0 -4.08909 1.29986 5.73942 5.03994 -6.72864 -8.78594 1.01456 -3.14265 7.20695 -9.35394 126.97679 5.0391 76.31984 -21.61422 -9.95251 20.34622 -8.5535 101.02582 -87.99543 53.31758 2.43288 -6.63358 9.71713 8.49828 -17.66942 12.8391 -10.24586 -10.97692 22.6702 -5.56756 -5.26255 -10.93315 3.92123 4.42674 9.38044
-0.6229 0.94024 1.32328 1420.85443 0 -3.86908 1.30467 5.39032 5.49466 -6.80216 -9.10241 1.17787 -3.41138 7.44579 -9.11601 126.80856 5.02002 76.41724 -21.63165 -9.97584 20.45326 -8.2533 101.24992 -87.90976 53.24664 2.43419 -7.65188 9.67991 8.68418 -17.59623 13.5041 -10.87413 -11.05345 22.04632 -5.45747 -5.96601 -5.82266 3.73794 4.12237 7.95994
-0.60797 0.93715 1.33168 1420.80912 0 -3.62293 1.38637 5.02246 5.91322 -6.92448 -9.40321 1.27089 -3.60922 7.65444 -8.9825 126.66582 5.05187 76.43075 -21.6024 -9.90021 20.57834 -8.07521 101.41529 -87.86264 53.21253 2.43537 -8.71376 9.60166 8.88871 -17.54867 14.06739 -11.43837 -11.11798 21.64854 -5.43495 -6.23557 -2.23858 3.69577 3.86778 6.77737
-0.59047 0.93415 1.33989 1420.90141 0 -3.32142 1.64855 4.62608 6.23064 -7.15486 -9.68388 1.17337 -3.65155 7.80765 -9.17341 126.59421 5.24331 76.21483 -21.42688 -9.58928 20.78179 -8.21751 101.42817 -87.90181 53.29222 2.44032 -9.91802 9.42815 9.09613 -17.49925 14.38414 -11.85636 -11.15477 21.94783 -5.65479 -5.21759 -2.8151 4.08728 3.77123 6.25926
-0.57191 0.93123 1.34802 1421.03143 0 -2.98977 1.98857 4.20942 6.51499 -7.4363 -9.95102 1.0049 -3.61666 7.93134 -9.46619 126.5482 5.48247 75.92084 -21.20763 -9.17944 21.00491 -8.48199 101.38405 -87.99505 53.40738 2.4417 -11.15431 9.21063 9.32139 -17.49457 14.59155 -12.20091 -11.17884 22.47015 -5.96906 -3.77037 -4.90835 4.60821 3.72727 5.99129
-0.55373 0.92835 1.35618 1421.13459 0 -2.6585 2.30432 3.79147 6.82302 -7.70854 -10.22184 0.86589 -3.59239 8.06263 -9.69507 126.48934 5.68645 75.67433 -21.02064 -8.80248 21.21408 -8.69087 101.36026 -88.06323 53.50853 2.4452 -12.35342 9.00245 9.55364 -17.51899 14.8327 -12.556 -11.21227 22.86061 -6.25416 -2.56491 -6.28309 5.0265 3.65946 5.63217
-0.53597 0.92512 1.3644 1421.27684 0 -2.38193 2.57691 3.41491 7.09435 -7.92561 -10.50036 0.737 -3.66969 8.21639 -9.99597 126.43436 5.94638 75.37431 -20.78233 -8.47005 21.44207 -8.89826 101.34999 -88.08804 53.61058 2.45733 -13.65972 8.83808 9.73033 -17.32215 15.14945 -13.01294 -11.23878 23.37824 -6.4809 -1.17008 -7.79748 5.62722 3.5899 5.17923
-0.51709 0.92266 1.37247 1421.34664 0 -1.98653 2.95511 2.95004 7.43308 -8.26556 -10.76066 0.57228 -3.51894 8.31662 -10.17266 126.37898 6.1025 75.16825 -20.63921 -8.02687 21.63587 -9.14184 101.30992 -88.27291 53.7056 2.43718 -14.73783 8.57325 10.02019 -17.61147 15.27178 -13.23433 -11.26565 23.68276 -6.84948 -0.06078 -9.37257 5.88447 3.53586 4.97457
-0.49524 0.9222 1.38022 1421.21652 0 -1.25073 3.62194 2.22798 7.98112 -8.96432 -10.97386 0.30744 -2.74456 8.28338 -9.97251 126.30206 5.94762 75.24103 -20.78124 -7.26526 21.73738 -9.41036 101.09927 -88.37956 53.89733 2.44895 -15.27652 8.0328 10.66265 -19.10835 14.98532 -12.87382 -11.39905 23.36656 -7.61456 0.10247 -10.77378 5.10243 3.52812 5.47272
-0.47231 0.92253 1.38782 1421.01122 0 -0.40074 4.38856 1.42207 8.59513 -9.77833 -11.16936 0.0121 -1.74701 8.19681 -9.64579 126.22619 5.6889 75.41125 -21.01846 -6.40328 21.80296 -9.7168 100.87765 -88.72549 54.06024 2.40954 -15.56534 7.39495 11.40907 -21.1142 14.49169 -12.27141 -11.51789 22.82457 -8.51404 -0.02843 -12.17604 3.98093 3.5325 6.20074
-0.44994 0.92257 1.39547 1420.83409 0 0.38506 5.09927 0.66579 9.16983 -10.51911 -11.37376 -0.25662 -0.85856 8.12978 -9.38296 126.15952 5.48607 75.53731 -21.20443 -5.61132 21.88086 -10.0382 100.73096 -89.31291 54.15144 2.31008 -15.90408 6.80707 12.0787 -22.97111 14.02212 -11.74368 -11.57172 22.37187 -9.3345 0.01314 -13.55679 3.0532 3.51989 6.76981
-0.42722 0.92234 1.40321 1420.68194 0 1.2268 5.85935 -0.14289 9.7845 -11.35192 -11.57506 -0.58017 0.07 8.0796 -9.09639 126.05415 5.24838 75.66081 -21.42239 -4.71123 21.97623 -10.23785 100.29584 -88.4836 54.5913 2.54722 -16.5142 6.1917 12.87555 -24.49029 13.83019 -11.3532 -11.91251 21.9831 -10.23522 -0.08489 -15.0805 1.96313 3.55369 7.56742
-0.40502 0.92286 1.41073 1420.4614 0 1.97502 6.53674 -0.85826 10.32982 -12.01699 -11.77751 -0.79773 0.96074 7.98441 -8.82834 126.02774 5.05774 75.81289 -21.59717 -4.0158 22.02651 -10.68614 100.4485 -90.586 54.31094 2.08996 -16.49735 5.61335 13.42961 -26.82258 13.03032 -10.63166 -11.67109 21.40467 -10.99788 0.0208 -16.28566 1.12907 3.49784 7.95301
-0.38436 0.92528 1.41776 1420.05407 0 2.46809 6.98239 -1.32748 10.68584 -12.21453 -11.99814 -0.69858 1.74596 7.75723 -8.63855 126.23244 5.02474 76.02786 -21.6273 -3.89346 21.96054 -11.91988 102.32311 -101.37875 51.93432 -0.43592 -14.8268 5.14184 13.30733 -31.36188 10.44665 -8.95763 -9.66319 20.35689 -11.35892 0.85954 -16.61364 1.08308 3.14941 7.0335
-0.36431 0.92842 1.42457 1419.58397 0 2.85681 7.33702 -1.69359 10.96616 -12.23498 -12.21818 -0.49449 2.47521 7.49012 -8.47219 126.51393 5.042 76.26688 -21.61131 -3.98378 21.85047 -13.38374 104.77192 -114.99591 48.85515 -3.62978 -12.53126 4.71506 12.93385 -36.68162 7.2875 -6.97695 -7.09935 19.12526 -11.57313 1.89349 -16.61306 1.30635 2.71753 5.70981
-0.3441 0.93123 1.43143 1419.15237 0 3.27323 7.71919 -2.08605 11.26976 -12.32013 -12.43215 -0.34891 3.19437 7.25567 -8.29682 126.75142 5.03446 76.49055 -21.61807 -3.98864 21.76081 -14.66809 106.89514 -126.88543 46.17248 -6.40861 -10.51015 4.28019 12.66193 -41.59234 4.49507 -5.20144 -4.89774 17.97702 -11.84647 2.77053 -16.75315 1.40673 2.35164 4.64415
-0.32337 0.93411 1.43852 1418.6736 0 3.7783 8.1634 -2.56891 11.62418 -12.47436 -12.67412 -0.15858 4.07065 6.96007 -8.10925 127.02749 5.03154 76.73745 -21.6206 -3.94429 21.66822 -16.26185 109.29108 -140.63951 43.16257 -9.65369 -8.51841 3.78889 12.44502 -46.76661 1.25306 -3.14117 -2.23671 16.82095 -12.15847 3.92308 -16.9298 1.4968 1.86929 3.27721
-0.30388 0.937 1.44507 1418.28221 0 4.07072 8.45528 -2.83677 11.85192 -12.44315 -12.85555 -0.03637 4.60435 6.78054 -7.95547 127.24132 5.03234 76.93889 -21.61973 -4.05229 21.57186 -17.27578 111.2552 -151.20094 40.66808 -12.09324 -6.3234 3.42869 12.05482 -51.55014 -1.18877 -1.60236 -0.39609 15.64142 -12.35102 4.55496 -16.95329 1.67762 1.60757 2.43325
-0.2876 0.9397 1.45021 1418.12172 0 3.81564 8.34939 -2.54533 11.76455 -11.92546 -12.88962 -0.12493 4.19761 6.95303 -7.88 127.26549 5.03129 77.02188 -21.62058 -4.54647 21.47454 -16.54067 111.88862 -152.04778 39.76617 -12.0774 -3.69595 3.40611 11.22902 -55.23242 -1.25988 -1.59709 -0.99774 14.43464 -12.26843 3.6754 -16.62174 2.03699 1.99268 3.17884
-0.27255 0.94237 1.4548 1418.05654 0 3.3471 8.09268 -2.03912 11.54869 -11.23018 -12.85907 -0.28566 3.44922 7.23981 -7.84018 127.22439 5.03276 77.05567 -21.61914 -5.18383 21.37519 -15.23042 112.06725 -149.61904 39.40755 -11.2392 -0.89227 3.51694 10.24187 -58.4577 -0.50938 -2.12469 -2.43685 13.21335 -12.06661 2.2714 -16.14995 2.4814 2.59972 4.45492
-0.25698 0.94505 1.45963 1417.96493 0 2.96622 7.90414 -1.62456 11.38103 -10.62705 -12.84548 -0.41571 2.86049 7.46046 -7.79065 127.21227 5.03349 77.10259 -21.61838 -5.74471 21.27804 -14.2441 112.4528 -148.82812 38.80239 -10.82281 1.81501 3.57594 9.3384 -61.78248 -0.14629 -2.39775 -3.46562 12.0044 -11.90623 1.12593 -15.74989 2.89238 3.09345 5.45627
